{
	"asset":{
		"version":"2.0",
		"generator":"Created using the official Cinema 4D glTF Exporter 1.000x290161"
	},
	"scenes":[{
		"nodes":[0]
	}],
	"nodes":[{
		"name":"lifedesign",
		"mesh":0
	}],
	"meshes":[{
		"primitives":[{
			"attributes":{
				"POSITION":1,
				"NORMAL":2,
				"TEXCOORD_0":3
			},
			"indices":0,
			"material":0
		}]
	}],
	"accessors":[{
		"bufferView":0,
		"type":"SCALAR",
		"componentType":5123,
		"count":63204,
		"byteOffset":0,
		"min":[0],
		"max":[13290]
	},
	{
		"bufferView":1,
		"type":"VEC3",
		"componentType":5126,
		"count":13291,
		"byteOffset":0,
		"min":[566.3065185546875,
		-0.00012199999764561653,
		-3200.22216796875],
		"max":[579.80224609375,
		12.3126220703125,
		-3190.57763671875]
	},
	{
		"bufferView":1,
		"type":"VEC3",
		"componentType":5126,
		"count":13291,
		"byteOffset":12,
		"min":[-0.9998750686645508,
		-0.9999063014984131,
		-0.9802500605583191],
		"max":[0.9999688267707825,
		0.9998750686645508,
		0.9802500605583191]
	},
	{
		"bufferView":1,
		"type":"VEC2",
		"componentType":5126,
		"count":13291,
		"byteOffset":24,
		"min":[0.0,
		0.0],
		"max":[1.0,
		1.7142858505249024]
	}],
	"bufferViews":[{
		"buffer":0,
		"byteOffset":0,
		"byteLength":126408,
		"target":34963
	},
	{
		"buffer":0,
		"byteOffset":126408,
		"byteLength":425312,
		"target":34962,
		"byteStride":32
	}],
	"buffers":[{
		"uri":"data:application/octet-stream;base64,",
		"byteLength":551720
	}],
	"materials":[{
		"pbrMetallicRoughness":{
			"baseColorFactor":[0.4588389992713928,
			0.8409550189971924,
			1.0,
			1.0],
			"metallicFactor":1.0,
			"roughnessFactor":1.0
		},
		"emissiveFactor":[0.0,
		0.0,
		0.0],
		"alphaMode":"BLEND",
		"doubleSided":false,
		"name":"lifedesign Front Inflation Material"
	}]
}